<?xml version="1.0" encoding="utf-8"?>
<!-- Generator: Adobe Illustrator 16.0.0, SVG Export Plug-In . SVG Version: 6.00 Build 0)  -->
<!DOCTYPE svg PUBLIC "-//W3C//DTD SVG 1.1//EN" "http://www.w3.org/Graphics/SVG/1.1/DTD/svg11.dtd">
<svg version="1.1" id="Layer_1" xmlns="http://www.w3.org/2000/svg" xmlns:xlink="http://www.w3.org/1999/xlink" x="0px" y="0px"
	 width="612px" height="251.333px" viewBox="0 0 612 251.333" enable-background="new 0 0 612 251.333" xml:space="preserve">
<path fill="#FFFFFF" d="M199.63,69.343c0,3.422-1.465,11.864-4.556,18.853c-2.064,4.665-5.513,7.978-7.305,11.311
	c-6.917,12.863-2.896,27.1-9.872,27.1c-6.693,0-17.153-14.432-21.156-29.771c-2.708-10.377-2.985-22.022-2.985-26.55
	c0-11.222,12.031-23.487,23.251-23.487C188.229,46.799,199.63,58.122,199.63,69.343z"/>
<path fill="#FFFFFF" d="M158.576,212.095c0-3.422,1.466-11.864,4.556-18.853c2.064-4.665,5.513-7.978,7.305-11.311
	c6.917-12.863,2.896-27.1,9.872-27.1c6.693,0,17.154,14.432,21.156,29.771c2.708,10.377,2.985,22.022,2.985,26.55
	c0,11.222-12.031,23.487-23.251,23.487C169.977,234.639,158.576,223.317,158.576,212.095z"/>
<path fill="#FFFFFF" d="M227.545,192.22c-2.963-1.71-9.542-7.199-14.048-13.371c-3.009-4.12-4.153-8.763-6.144-11.981
	c-7.681-12.423-22.021-16.059-18.533-22.1c3.346-5.795,21.076-7.639,36.362-3.437c10.339,2.844,20.563,8.427,24.483,10.69
	c9.721,5.612,14.326,22.164,8.714,31.879C252.77,193.62,237.264,197.832,227.545,192.22z"/>
<path fill="#FFFFFF" d="M250.056,120.707c-2.963,1.711-11.007,4.663-18.602,5.48c-5.074,0.546-9.667-0.784-13.45-0.669
	c-14.598,0.439-24.917,11.041-28.406,5c-3.346-5.795,3.922-22.073,15.205-33.208c7.632-7.532,17.578-13.594,21.5-15.859
	c9.721-5.611,26.356-1.324,31.965,8.394C263.881,99.561,259.777,115.097,250.056,120.707z"/>
<path fill="#FFFFFF" d="M125.597,85.238c2.965,1.711,9.542,7.202,14.049,13.374c3.007,4.119,4.15,8.763,6.144,11.981
	c7.678,12.421,22.021,16.057,18.533,22.1c-3.348,5.795-21.076,7.638-36.359,3.434c-10.342-2.841-20.565-8.425-24.488-10.688
	c-9.716-5.612-14.323-22.164-8.714-31.88C100.373,83.841,115.879,79.628,125.597,85.238z"/>
<path fill="#FFFFFF" d="M105.312,159.562c2.963-1.711,11.01-4.661,18.604-5.479c5.072-0.545,9.667,0.788,13.45,0.67
	c14.596-0.439,24.918-11.044,28.406-5c3.346,5.798-3.925,22.072-15.207,33.205c-7.629,7.536-17.576,13.599-21.498,15.865
	c-9.718,5.607-26.356,1.321-31.965-8.395C91.489,180.709,95.593,165.173,105.312,159.562z"/>
<path fill="#FFFFFF" d="M519.649,88.295c-0.04-1.1-21.732-1.021-22.413,0c-0.682,1.021,0.418,56.19,0.418,56.19
	s-24.323-55.719-25.555-56.19c-1.23-0.472-39.93-0.629-40.218,0c-0.288,0.628,0.629,55.353,0.629,55.353
	s-24.507-55.117-25.556-55.353c-1.048-0.236-50.272-0.083-60.536,0c-10.265,0.083-11.849,12.713-12.568,12.621
	c-0.721-0.092-0.577-12.633-14.663-12.852c-14.087-0.219-45.285-0.358-45.717,0.231c-0.432,0.589-0.432,32.127,0,32.598
	c0.432,0.471,39.864-0.589,40.375,0c0.511,0.589,0.235,3.457,0.235,4.085s-40.179,0.393-40.61,0.942c-0.432,0.55,0,62.605,0,62.605
	h22.623l-0.157-29.535c0,0,34.091-1.335,35.191-0.314c0.594,0.551,4.506,29.449,15.082,29.849c10.576,0.4,60.483,1.414,60.483,0
	c0-1.414,0-50.115,0-50.115s22.545,48.977,22.466,50.115c-0.078,1.139,42.261,0.55,42.574,0c0.314-0.55,0-50.115,0-50.115
	s22.898,48.819,22.78,50.115c-0.118,1.296,25.135,1.61,25.137,0C519.65,186.916,519.688,89.395,519.649,88.295z M384.019,158.52
	c0,0-24.98,0.681-26.97-0.786c-1.99-1.466-3.565-8.762-3.351-17.856c0.202-8.535,0.471-13.668,3.718-15.71
	c3.246-2.042,26.603-0.942,26.603-0.942V158.52z"/>
</svg>
